<svg version="1.1" id="Layer_1" xmlns="http://www.w3.org/2000/svg" xmlns:xlink="http://www.w3.org/1999/xlink" x="0px" y="0px"
	 width="100%" viewBox="0 0 121 73" enable-background="new 0 0 121 73" xml:space="preserve">
<path fill="#000000" opacity="1.000000" stroke="none" 
	d="
M1.000000,19.000000 
	C1.000000,15.969407 1.000000,12.938813 1.468654,9.454107 
	C9.094226,9.000064 16.252768,8.906329 23.407545,9.030157 
	C29.036177,9.127573 33.408955,11.370326 35.989307,16.734367 
	C40.079559,25.237169 44.426586,33.616314 48.531960,42.112057 
	C49.747719,44.627972 50.753155,45.276031 53.790768,44.189472 
	C69.173500,38.687019 84.678406,33.518745 100.202400,28.421906 
	C107.395691,26.060207 114.729752,24.127300 122.000000,22.000000 
	C122.000000,39.242554 122.000000,56.485107 122.000000,74.000000 
	C111.647362,74.000000 101.292343,74.000000 90.495178,73.655334 
	C91.073959,72.513168 92.049911,71.648552 93.123215,70.929192 
	C99.428970,66.702919 102.626549,58.784676 100.589752,52.339039 
	C98.279495,45.028042 91.497246,39.903709 84.284462,40.019585 
	C76.974197,40.137028 70.682716,44.843822 68.654114,51.712994 
	C66.344582,59.533474 69.044975,66.474236 76.032982,71.036247 
	C77.178658,71.784187 78.018700,73.000275 79.000000,74.000000 
	C63.312439,74.000000 47.624878,74.000000 31.495167,73.655334 
	C34.250328,70.070023 38.414978,67.337837 40.441719,63.481915 
	C44.544716,55.675877 41.145458,46.248951 33.918270,42.461212 
	C25.269514,37.928429 16.286226,40.155262 11.355062,48.054314 
	C6.715054,55.486977 8.824614,65.154839 16.183884,70.531929 
	C17.563868,71.540222 18.733366,72.836578 20.000000,74.000000 
	C13.745326,74.000000 7.490652,74.000000 1.000000,74.000000 
	C1.000000,68.649254 1.000000,63.295082 1.433577,57.470421 
	C3.142455,56.999931 4.417756,56.999931 4.323457,56.999931 
	C6.686221,52.021145 7.995622,47.550049 10.630380,44.087444 
	C15.272215,37.987129 22.126286,35.594788 29.517735,37.359138 
	C37.709728,39.314587 42.909611,44.904087 45.053986,53.251526 
	C45.411591,54.643604 46.817669,56.756413 47.846996,56.821072 
	C53.454136,57.173294 59.095001,56.988564 63.628029,56.988564 
	C65.838425,51.562286 67.725876,46.928822 69.823097,41.780365 
	C62.805180,44.291885 56.190693,46.659027 49.078125,49.204418 
	C43.659245,38.655209 38.049416,28.382818 33.104153,17.799885 
	C31.016258,13.331761 27.283489,12.876514 23.613556,12.275745 
	C21.370350,11.908532 18.888319,13.000229 16.296555,13.476583 
	C16.066607,14.849774 15.810657,16.378229 15.623354,17.496740 
	C10.450946,18.028458 5.725473,18.514229 1.000000,19.000000 
M89.866989,37.977802 
	C97.668198,41.136314 98.541786,40.666874 101.849091,31.187624 
	C96.862946,32.902672 92.146172,34.525066 87.107140,36.258305 
	C88.115532,36.952534 88.649414,37.320091 89.866989,37.977802 
z"/>
<path fill="#FF9900" opacity="1.000000" stroke="none" 
	d="
M122.000000,21.666668 
	C114.729752,24.127300 107.395691,26.060207 100.202400,28.421906 
	C84.678406,33.518745 69.173500,38.687019 53.790768,44.189472 
	C50.753155,45.276031 49.747719,44.627972 48.531960,42.112057 
	C44.426586,33.616314 40.079559,25.237169 35.989307,16.734367 
	C33.408955,11.370326 29.036177,9.127573 23.407545,9.030157 
	C16.252768,8.906329 9.094226,9.000064 1.468654,8.999998 
	C1.000000,6.356426 1.000000,3.712852 1.000000,1.000000 
	C15.020830,1.000000 29.041758,1.000000 43.193893,1.232031 
	C46.549637,6.409349 50.755989,8.420496 56.980186,8.167441 
	C70.399185,7.621872 83.861679,7.781513 97.292862,8.147907 
	C100.801521,8.243621 104.489624,9.709228 107.689377,11.341455 
	C112.642891,13.868290 117.247467,17.079172 122.000000,20.000000 
	C122.000000,20.444445 122.000000,20.888889 122.000000,21.666668 
z"/>
<path fill="#FF9900" opacity="1.000000" stroke="none" 
	d="
M1.000000,19.468658 
	C5.725473,18.514229 10.450946,18.028458 15.623354,17.496740 
	C15.810657,16.378229 16.066607,14.849774 16.296555,13.476583 
	C18.888319,13.000229 21.370350,11.908532 23.613556,12.275745 
	C27.283489,12.876514 31.016258,13.331761 33.104153,17.799885 
	C38.049416,28.382818 43.659245,38.655209 49.078125,49.204418 
	C56.190693,46.659027 62.805180,44.291885 69.823097,41.780365 
	C67.725876,46.928822 65.838425,51.562286 63.628029,56.988564 
	C59.095001,56.988564 53.454136,57.173294 47.846996,56.821072 
	C46.817669,56.756413 45.411591,54.643604 45.053986,53.251526 
	C42.909611,44.904087 37.709728,39.314587 29.517735,37.359138 
	C22.126286,35.594788 15.272215,37.987129 10.630380,44.087444 
	C7.995622,47.550049 6.686221,52.021145 4.323457,56.999931 
	C4.417756,56.999931 3.142455,56.999931 1.433577,56.999966 
	C1.000000,44.645771 1.000000,32.291542 1.000000,19.468658 
M11.430988,27.999975 
	C12.869700,27.923441 14.308414,27.846907 15.989814,27.757462 
	C15.912287,26.051258 15.849376,24.666695 15.786578,23.284649 
	C12.013084,23.284649 8.627670,23.284649 4.982703,23.284649 
	C5.081716,24.970413 5.163060,26.355368 5.259655,28.000000 
	C7.243162,28.000000 8.871580,28.000000 11.430988,27.999975 
z"/>
<path fill="#32323A" opacity="1.000000" stroke="none" 
	d="
M79.458069,74.000000 
	C78.018700,73.000275 77.178658,71.784187 76.032982,71.036247 
	C69.044975,66.474236 66.344582,59.533474 68.654114,51.712994 
	C70.682716,44.843822 76.974197,40.137028 84.284462,40.019585 
	C91.497246,39.903709 98.279495,45.028042 100.589752,52.339039 
	C102.626549,58.784676 99.428970,66.702919 93.123215,70.929192 
	C92.049911,71.648552 91.073959,72.513168 90.026520,73.655334 
	C86.638710,74.000000 83.277428,74.000000 79.458069,74.000000 
M88.807480,63.446243 
	C92.140884,60.821423 93.018082,57.107201 91.399963,53.633400 
	C90.458687,51.612637 87.687523,49.833408 85.392288,49.195354 
	C81.827438,48.204353 78.436081,50.069981 77.463966,53.534580 
	C76.772636,55.998470 77.183411,59.442348 78.476784,61.639889 
	C80.575409,65.205574 84.306061,65.691093 88.807480,63.446243 
z"/>
<path fill="#32323A" opacity="1.000000" stroke="none" 
	d="
M20.458069,74.000000 
	C18.733366,72.836578 17.563868,71.540222 16.183884,70.531929 
	C8.824614,65.154839 6.715054,55.486977 11.355062,48.054314 
	C16.286226,40.155262 25.269514,37.928429 33.918270,42.461212 
	C41.145458,46.248951 44.544716,55.675877 40.441719,63.481915 
	C38.414978,67.337837 34.250328,70.070023 31.026508,73.655334 
	C27.638712,74.000000 24.277426,74.000000 20.458069,74.000000 
M19.284313,51.761066 
	C17.310654,54.914265 16.293947,58.437977 19.111303,61.271835 
	C20.874075,63.044930 23.822048,64.549255 26.239742,64.551544 
	C29.998270,64.555092 33.059406,61.806873 32.888775,57.952129 
	C32.769295,55.252857 31.242632,51.942535 29.231861,50.160484 
	C26.324596,47.583920 22.751093,48.801418 19.284313,51.761066 
z"/>
<path fill="#000000" opacity="1.000000" stroke="none" 
	d="
M122.000000,19.530624 
	C117.247467,17.079172 112.642891,13.868290 107.689377,11.341455 
	C104.489624,9.709228 100.801521,8.243621 97.292862,8.147907 
	C83.861679,7.781513 70.399185,7.621872 56.980186,8.167441 
	C50.755989,8.420496 46.549637,6.409349 43.662552,1.232031 
	C69.881790,1.000000 95.763573,1.000000 122.000000,1.000000 
	C122.000000,7.015774 122.000000,13.038511 122.000000,19.530624 
z"/>
<path fill="#FF9900" opacity="1.000000" stroke="none" 
	d="
M89.525146,37.832726 
	C88.649414,37.320091 88.115532,36.952534 87.107140,36.258305 
	C92.146172,34.525066 96.862946,32.902672 101.849091,31.187624 
	C98.541786,40.666874 97.668198,41.136314 89.525146,37.832726 
z"/>
<path fill="#000000" opacity="1.000000" stroke="none" 
	d="
M10.965494,27.999989 
	C8.871580,28.000000 7.243162,28.000000 5.259655,28.000000 
	C5.163060,26.355368 5.081716,24.970413 4.982703,23.284649 
	C8.627670,23.284649 12.013084,23.284649 15.786578,23.284649 
	C15.849376,24.666695 15.912287,26.051258 15.989814,27.757462 
	C14.308414,27.846907 12.869700,27.923441 10.965494,27.999989 
z"/>
<path fill="#000000" opacity="1.000000" stroke="none" 
	d="
M88.462471,63.620865 
	C84.306061,65.691093 80.575409,65.205574 78.476784,61.639889 
	C77.183411,59.442348 76.772636,55.998470 77.463966,53.534580 
	C78.436081,50.069981 81.827438,48.204353 85.392288,49.195354 
	C87.687523,49.833408 90.458687,51.612637 91.399963,53.633400 
	C93.018082,57.107201 92.140884,60.821423 88.462471,63.620865 
M88.999031,57.397713 
	C89.206993,54.341774 88.188637,51.827503 84.804756,52.167713 
	C83.124336,52.336662 80.788734,53.905285 80.217293,55.401340 
	C79.272644,57.874447 79.726143,60.760109 83.158394,61.574677 
	C86.069672,62.265614 88.238617,61.403553 88.999031,57.397713 
z"/>
<path fill="#000000" opacity="1.000000" stroke="none" 
	d="
M19.553694,51.489868 
	C22.751093,48.801418 26.324596,47.583920 29.231861,50.160484 
	C31.242632,51.942535 32.769295,55.252857 32.888775,57.952129 
	C33.059406,61.806873 29.998270,64.555092 26.239742,64.551544 
	C23.822048,64.549255 20.874075,63.044930 19.111303,61.271835 
	C16.293947,58.437977 17.310654,54.914265 19.553694,51.489868 
M21.924240,60.366505 
	C22.184196,60.559933 22.463104,60.941471 22.701157,60.917492 
	C24.914129,60.694538 27.680208,61.087429 29.137869,59.896538 
	C30.168442,59.054581 30.184746,55.528839 29.252934,54.143440 
	C28.367331,52.826748 25.068327,51.695534 23.904194,52.361012 
	C22.384409,53.229797 21.850685,55.918678 21.051708,57.888939 
	C20.841774,58.406628 21.218670,59.162292 21.924240,60.366505 
z"/>
<path fill="#FF9900" opacity="1.000000" stroke="none" 
	d="
M88.996582,57.807678 
	C88.238617,61.403553 86.069672,62.265614 83.158394,61.574677 
	C79.726143,60.760109 79.272644,57.874447 80.217293,55.401340 
	C80.788734,53.905285 83.124336,52.336662 84.804756,52.167713 
	C88.188637,51.827503 89.206993,54.341774 88.996582,57.807678 
z"/>
<path fill="#FF9900" opacity="1.000000" stroke="none" 
	d="
M21.625158,60.087585 
	C21.218670,59.162292 20.841774,58.406628 21.051708,57.888939 
	C21.850685,55.918678 22.384409,53.229797 23.904194,52.361012 
	C25.068327,51.695534 28.367331,52.826748 29.252934,54.143440 
	C30.184746,55.528839 30.168442,59.054581 29.137869,59.896538 
	C27.680208,61.087429 24.914129,60.694538 22.701157,60.917492 
	C22.463104,60.941471 22.184196,60.559933 21.625158,60.087585 
z"/>
</svg>