<svg xmlns="http://www.w3.org/2000/svg" xmlns:xlink="http://www.w3.org/1999/xlink" id="Layer_1" width="100%" x="0" y="0" enable-background="new 0 0 96 81" version="1.1" viewBox="0 0 96 81" xml:space="preserve"><path fill="#000" stroke="none" d="M34.000000,82.000000 C23.074581,82.000000 12.149162,82.000000 1.000000,82.000000 C1.000000,71.646843 1.000000,61.292080 1.352269,50.470211 C8.400946,56.559917 16.676252,57.030540 26.510834,56.683746 C22.870775,51.685219 20.026831,47.513073 16.839102,43.622612 C16.183832,42.822884 14.251347,43.011147 12.894703,42.857861 C10.662412,42.605633 7.688228,44.294617 7.206699,40.698521 C12.055713,43.405590 14.782928,40.442036 16.849905,37.303162 C20.854109,31.222456 24.387215,24.832624 28.206285,18.626734 C28.495251,18.157171 29.503855,18.130472 30.096352,18.262814 C30.013744,19.924545 29.511444,21.530642 30.090668,22.469498 C34.918964,30.295603 38.433437,38.402088 37.038052,47.922119 C36.857117,49.156559 37.190594,50.466389 37.316448,52.151890 C40.683319,52.151890 43.770782,52.151890 46.824780,52.151890 C47.202278,59.470081 47.754314,59.986847 54.845539,59.997799 C60.336094,60.006279 65.826675,59.999641 71.317245,59.999477 C79.912430,59.999218 79.912430,59.999126 81.804596,51.723183 C84.751587,51.723183 87.811516,51.723183 90.777298,51.723183 C90.777298,37.306152 90.777298,23.382887 90.777298,9.000115 C83.622330,9.000115 76.671616,9.200462 69.741699,8.907953 C66.690475,8.779161 65.178078,10.013493 64.121681,12.513735 C62.105156,17.286402 60.193573,22.111069 57.948902,26.774801 C57.312469,28.097116 55.689201,29.768187 54.490803,29.790483 C52.948124,29.819187 50.796711,28.745768 49.916481,27.457603 C45.366184,20.798527 41.138088,13.919282 36.983650,7.408345 C35.475506,9.074437 34.169750,10.516943 32.933914,11.561541 C35.477100,7.498429 33.175880,4.304788 32.000000,1.000000 C53.593494,1.000000 75.186989,1.000000 97.000000,1.000000 C97.000000,22.353725 97.000000,43.708206 96.628166,65.523590 C93.845230,64.995613 91.446251,63.185638 89.021065,63.149799 C72.070534,62.899315 55.114056,62.941063 38.160660,63.059013 C32.884209,63.095722 29.597485,66.348869 30.185797,71.662399 C30.578100,75.205605 32.669197,78.560707 34.000000,82.000000 z" opacity="1"/><path fill="#32323A" stroke="none" d="M34.468658,82.000000 C32.669197,78.560707 30.578100,75.205605 30.185797,71.662399 C29.597485,66.348869 32.884209,63.095722 38.160660,63.059013 C55.114056,62.941063 72.070534,62.899315 89.021065,63.149799 C91.446251,63.185638 93.845230,64.995613 96.628166,65.992249 C97.000000,71.303619 97.000000,76.607246 97.000000,82.000000 C76.312515,82.000000 55.624916,82.000000 34.468658,82.000000 M52.008652,68.936485 C49.004517,71.421951 49.362995,73.543259 52.946819,75.936127 C55.115852,75.890015 57.959343,76.680374 59.296333,75.602348 C61.317322,73.972801 62.099720,71.051666 58.656483,68.343781 C56.657295,68.456070 54.658112,68.568359 52.008652,68.936485 M83.999657,75.000366 C83.999657,75.000366 83.976578,74.977959 84.119453,75.717010 C85.765617,76.061592 87.970726,77.218811 88.927299,76.560844 C90.372246,75.566963 91.816895,73.215004 91.647018,71.611237 C91.475624,69.993233 89.207909,67.257690 88.084137,67.365364 C85.897072,67.574913 83.728653,69.263191 81.917397,70.775879 C81.634094,71.012474 83.272354,73.549911 83.999657,75.000366 M74.663528,74.968582 C78.109528,72.509254 76.791168,69.578445 74.260597,68.252846 C72.509789,67.335709 68.645149,67.793625 67.498909,69.143440 C66.390182,70.449074 66.716736,74.337906 67.938622,75.894081 C69.299049,77.626701 72.550369,78.980865 74.000366,75.000351 C74.000366,75.000351 73.977982,75.023392 74.663528,74.968582 M35.234474,69.995819 C34.777954,72.981155 34.750980,76.165253 38.436848,76.663452 C40.333450,76.919807 43.436756,75.888741 44.244347,74.454086 C45.084061,72.962364 44.562759,69.511787 43.304207,68.287682 C40.915146,65.964020 37.827114,66.371315 35.234474,69.995819 z" opacity="1"/><path fill="#F90" stroke="none" d="M30.177942,17.897911 C29.503855,18.130472 28.495251,18.157171 28.206285,18.626734 C24.387215,24.832624 20.854109,31.222456 16.849905,37.303162 C14.782928,40.442036 12.055713,43.405590 7.214296,40.593971 C6.901943,40.256035 6.538157,40.115734 6.307529,39.788193 C6.050270,37.649281 5.411927,35.549484 6.105818,34.077854 C8.724481,28.524080 11.835846,23.205204 14.649032,17.739849 C17.502665,12.195918 20.221903,6.582810 23.000000,1.000000 C25.700014,1.000000 28.400026,1.000000 31.550020,1.000000 C33.175880,4.304788 35.477100,7.498429 32.974503,11.554245 C32.945175,11.944856 33.019165,11.908413 32.708916,12.025942 C31.901999,13.103618 31.405329,14.063765 30.932440,14.995810 C30.956219,14.967706 31.002249,14.910244 30.630169,15.110044 C30.171364,16.236483 30.084641,17.163124 30.040308,18.039349 C30.082701,17.988934 30.177942,17.897913 30.177942,17.897911 z" opacity="1"/><path fill="#000" stroke="none" d="M22.531218,1.000000 C20.221903,6.582810 17.502665,12.195918 14.649032,17.739849 C11.835846,23.205204 8.724481,28.524080 6.105818,34.077854 C5.411927,35.549484 6.050270,37.649281 5.911688,39.730042 C4.164316,38.666290 2.582158,37.333145 1.000000,36.000000 C1.000000,24.423687 1.000000,12.847376 1.000000,1.000000 C8.018496,1.000000 15.040465,1.000000 22.531218,1.000000 z" opacity="1"/><path fill="#32323A" stroke="none" d="M1.000000,36.464653 C2.582158,37.333145 4.164316,38.666290 6.142315,40.057587 C6.538157,40.115734 6.901943,40.256035 6.894346,40.360588 C7.688228,44.294617 10.662412,42.605633 12.894703,42.857861 C14.251347,43.011147 16.183832,42.822884 16.839102,43.622612 C20.026831,47.513073 22.870775,51.685219 26.510834,56.683746 C16.676252,57.030540 8.400946,56.559917 1.352269,50.001553 C1.000000,45.643101 1.000000,41.286201 1.000000,36.464653 z" opacity="1"/><path fill="#F90" stroke="none" d="M32.904587,11.952152 C34.169750,10.516943 35.475506,9.074437 36.983650,7.408345 C41.138088,13.919282 45.366184,20.798527 49.916481,27.457603 C50.796711,28.745768 52.948124,29.819187 54.490803,29.790483 C55.689201,29.768187 57.312469,28.097116 57.948902,26.774801 C60.193573,22.111069 62.105156,17.286402 64.121681,12.513735 C65.178078,10.013493 66.690475,8.779161 69.741699,8.907953 C76.671616,9.200462 83.622330,9.000115 90.777298,9.000115 C90.777298,23.382887 90.777298,37.306152 90.777298,51.723183 C87.811516,51.723183 84.751587,51.723183 81.804596,51.723183 C79.912430,59.999126 79.912430,59.999218 71.317245,59.999477 C65.826675,59.999641 60.336094,60.006279 54.845539,59.997799 C47.754314,59.986847 47.202278,59.470081 46.824780,52.151890 C43.770782,52.151890 40.683319,52.151890 37.316448,52.151890 C37.190594,50.466389 36.857117,49.156559 37.038052,47.922119 C38.433437,38.402088 34.918964,30.295603 30.090668,22.469498 C29.511444,21.530642 30.013744,19.924545 30.096352,18.262814 C30.177942,17.897913 30.082701,17.988934 30.412235,17.839684 C30.828596,16.763704 30.915422,15.836974 31.002249,14.910244 C31.002249,14.910244 30.956219,14.967706 31.287340,15.317200 C32.085361,14.413934 32.552261,13.161173 33.019165,11.908413 C33.019165,11.908413 32.945175,11.944856 32.904587,11.952152 M68.944847,20.326883 C68.073647,22.446972 67.202438,24.567060 66.304634,26.751881 C72.453949,26.751881 78.030472,26.751881 83.738091,26.751881 C83.738091,23.123405 83.738091,19.746605 83.738091,16.000082 C80.702347,16.000082 77.902832,16.210354 75.149475,15.943841 C72.097008,15.648376 70.083031,16.622477 68.944847,20.326883 z" opacity="1"/><path fill="#000" stroke="none" d="M35.391449,69.627380 C37.827114,66.371315 40.915146,65.964020 43.304207,68.287682 C44.562759,69.511787 45.084061,72.962364 44.244347,74.454086 C43.436756,75.888741 40.333450,76.919807 38.436848,76.663452 C34.750980,76.165253 34.777954,72.981155 35.391449,69.627380 M39.621391,69.146904 C38.849319,70.480164 37.946136,71.767120 37.441841,73.194954 C37.363194,73.417618 39.102898,74.726028 40.001305,74.725517 C40.899639,74.724998 42.637726,73.414993 42.558754,73.191872 C42.053661,71.764870 41.149136,70.479248 39.621391,69.146904 z" opacity="1"/><path fill="#000" stroke="none" d="M74.023407,74.977966 C72.550369,78.980865 69.299049,77.626701 67.938622,75.894081 C66.716736,74.337906 66.390182,70.449074 67.498909,69.143440 C68.645149,67.793625 72.509789,67.335709 74.260597,68.252846 C76.791168,69.578445 78.109528,72.509254 74.323456,74.586319 C73.898499,71.905411 74.334312,69.059296 70.810860,69.291725 C69.867271,69.353958 69.036797,71.130882 68.154388,72.120636 C69.778259,73.074951 71.391632,74.048157 73.037086,74.963684 C73.290169,75.104492 73.690941,74.979843 74.023407,74.977966 z" opacity="1"/><path fill="#000" stroke="none" d="M84.022079,75.023438 C83.272354,73.549911 81.634094,71.012474 81.917397,70.775879 C83.728653,69.263191 85.897072,67.574913 88.084137,67.365364 C89.207909,67.257690 91.475624,69.993233 91.647018,71.611237 C91.816895,73.215004 90.372246,75.566963 88.927299,76.560844 C87.970726,77.218811 85.765617,76.061592 84.457596,75.350227 C87.094063,74.897049 89.939964,75.331169 89.707581,71.809158 C89.645355,70.866035 87.867996,70.036079 86.878014,69.154167 C85.924072,70.778160 84.951241,72.391640 84.036102,74.037216 C83.895363,74.290291 84.020111,74.691002 84.022079,75.023438 z" opacity="1"/><path fill="#000" stroke="none" d="M59.068066,68.923012 C62.099720,71.051666 61.317322,73.972801 59.296333,75.602348 C57.959343,76.680374 55.115852,75.890015 52.914055,75.535873 C52.881294,75.135612 53.064083,74.932861 53.467361,74.952484 C58.052387,75.320549 59.732929,73.545120 58.725243,69.273254 C58.839699,69.156685 59.068066,68.923012 59.068066,68.923012 z" opacity="1"/><path fill="#000" stroke="none" d="M52.791809,75.238678 C49.362995,73.543259 49.004517,71.421951 52.439068,68.908203 C52.869484,68.879921 53.077900,69.081444 53.013077,69.412491 C52.986862,71.473320 53.025475,73.203087 53.064083,74.932861 C53.064083,74.932861 52.881294,75.135612 52.791809,75.238678 z" opacity="1"/><path fill="#000" stroke="none" d="M52.764206,68.780289 C54.658112,68.568359 56.657295,68.456070 58.862274,68.633392 C59.068066,68.923012 58.839699,69.156685 58.361897,69.168259 C56.282028,69.147034 54.679966,69.114235 53.077900,69.081444 C53.077900,69.081444 52.869484,68.879921 52.764206,68.780289 z" opacity="1"/><path fill="#000" stroke="none" d="M32.708916,12.025941 C32.552261,13.161173 32.085361,14.413934 31.263561,15.345304 C31.405329,14.063765 31.901999,13.103618 32.708916,12.025941 z" opacity="1"/><path fill="#000" stroke="none" d="M30.630169,15.110044 C30.915422,15.836974 30.828596,16.763704 30.369843,17.890099 C30.084641,17.163124 30.171364,16.236483 30.630169,15.110044 z" opacity="1"/><path fill="#000" stroke="none" d="M69.011444,19.935680 C70.083031,16.622477 72.097008,15.648376 75.149475,15.943841 C77.902832,16.210354 80.702347,16.000082 83.738091,16.000082 C83.738091,19.746605 83.738091,23.123405 83.738091,26.751881 C78.030472,26.751881 72.453949,26.751881 66.304634,26.751881 C67.202438,24.567060 68.073647,22.446972 69.011444,19.935680 z" opacity="1"/><path fill="#32323A" stroke="none" d="M39.998699,69.147011 C41.149136,70.479248 42.053661,71.764870 42.558754,73.191872 C42.637726,73.414993 40.899639,74.724998 40.001305,74.725517 C39.102898,74.726028 37.363194,73.417618 37.441841,73.194954 C37.946136,71.767120 38.849319,70.480164 39.998699,69.147011 z" opacity="1"/><path fill="#32323A" stroke="none" d="M74.011887,74.989166 C73.690941,74.979843 73.290169,75.104492 73.037086,74.963684 C71.391632,74.048157 69.778259,73.074951 68.154388,72.120636 C69.036797,71.130882 69.867271,69.353958 70.810860,69.291725 C74.334312,69.059296 73.898499,71.905411 73.980682,74.613724 C73.977982,75.023392 74.000366,75.000351 74.011887,74.989166 z" opacity="1"/><path fill="#32323A" stroke="none" d="M84.010864,75.011902 C84.020111,74.691002 83.895363,74.290291 84.036102,74.037216 C84.951241,72.391640 85.924072,70.778160 86.878014,69.154167 C87.867996,70.036079 89.645355,70.866035 89.707581,71.809158 C89.939964,75.331169 87.094063,74.897049 84.386162,74.980698 C83.976578,74.977959 83.999657,75.000366 84.010864,75.011902 z" opacity="1"/><path fill="#32323A" stroke="none" d="M53.013077,69.412491 C54.679966,69.114235 56.282028,69.147034 58.247440,69.284821 C59.732929,73.545120 58.052387,75.320549 53.467361,74.952484 C53.025475,73.203087 52.986862,71.473320 53.013077,69.412491 z" opacity="1"/></svg>