<svg version="1.1" id="Layer_1" xmlns="http://www.w3.org/2000/svg" xmlns:xlink="http://www.w3.org/1999/xlink" x="0px" y="0px"
	 width="100%" viewBox="0 0 120 65" enable-background="new 0 0 120 65" xml:space="preserve">
<path fill="#FF9900" opacity="1.000000" stroke="none" 
	d="
M68.000000,66.000000 
	C46.654671,66.000000 25.309317,66.012787 3.964083,65.967957 
	C2.694235,65.965294 0.389839,67.035164 1.272417,63.842911 
	C2.690068,61.612141 4.911141,59.473011 4.789663,57.476402 
	C4.325342,49.844803 9.230679,45.431202 14.241411,41.623806 
	C17.234146,39.349785 18.000080,37.272148 18.107033,33.941303 
	C18.185459,31.498936 18.658773,28.692284 19.974094,26.730553 
	C26.342821,17.231945 34.863930,9.962882 44.614964,4.053353 
	C45.647545,3.427567 46.216145,2.036196 47.000000,1.000000 
	C52.354931,1.000000 57.709858,1.000000 63.196640,1.239793 
	C69.749451,7.929368 77.681923,12.029201 85.732834,15.969133 
	C94.046967,20.037876 95.773254,23.388430 94.570862,32.876122 
	C93.790070,32.926647 92.770683,32.679127 92.204590,33.076828 
	C85.093727,38.072399 76.195450,41.431671 74.887268,51.851326 
	C74.765968,52.817516 73.742523,53.870571 72.865112,54.507339 
	C68.897095,57.387070 68.053970,61.508205 68.000000,66.000000 
z"/>
<path fill="#000000" opacity="1.000000" stroke="none" 
	d="
M68.428467,66.000000 
	C68.053970,61.508205 68.897095,57.387070 72.865112,54.507339 
	C73.742523,53.870571 74.765968,52.817516 74.887268,51.851326 
	C76.195450,41.431671 85.093727,38.072399 92.204590,33.076828 
	C92.770683,32.679127 93.790070,32.926647 94.570862,32.876122 
	C95.773254,23.388430 94.046967,20.037876 85.732834,15.969133 
	C77.681923,12.029201 69.749451,7.929368 63.664246,1.239793 
	C82.930466,1.000000 101.860931,1.000000 121.000000,1.000000 
	C121.000000,21.687094 121.000000,42.374889 120.662270,63.495571 
	C119.576805,62.601711 118.829071,61.274963 118.055092,59.570778 
	C116.714806,56.453648 115.400749,53.713951 114.044693,50.594582 
	C111.541641,42.388233 103.913315,41.411568 97.691048,38.106319 
	C96.947189,38.030071 96.520966,37.997383 95.967712,37.824585 
	C95.528908,37.777931 95.217125,37.871387 94.675903,38.005226 
	C94.446465,38.045609 93.992126,38.148930 93.654587,38.154030 
	C91.527107,39.411526 89.737167,40.663921 87.658684,42.092937 
	C84.867302,45.746964 82.339218,49.206665 79.878540,52.713657 
	C79.225632,53.644192 79.037971,55.168438 78.195389,55.653465 
	C74.013367,58.060844 73.657761,61.851978 74.000000,66.000000 
	C72.285645,66.000000 70.571281,66.000000 68.428467,66.000000 
z"/>
<path fill="#000000" opacity="1.000000" stroke="none" 
	d="
M46.531342,1.000000 
	C46.216145,2.036196 45.647545,3.427567 44.614964,4.053353 
	C34.863930,9.962882 26.342821,17.231945 19.974094,26.730553 
	C18.658773,28.692284 18.185459,31.498936 18.107033,33.941303 
	C18.000080,37.272148 17.234146,39.349785 14.241411,41.623806 
	C9.230679,45.431202 4.325342,49.844803 4.789663,57.476402 
	C4.911141,59.473011 2.690068,61.612141 1.272417,63.342911 
	C1.000000,42.417408 1.000000,21.834814 1.000000,1.000000 
	C16.019955,1.000000 31.041319,1.000000 46.531342,1.000000 
z"/>
<path fill="#32323A" opacity="1.000000" stroke="none" 
	d="
M74.468658,66.000000 
	C73.657761,61.851978 74.013367,58.060844 78.195389,55.653465 
	C79.037971,55.168438 79.225632,53.644192 79.878540,52.713657 
	C82.339218,49.206665 84.867302,45.746964 87.913589,42.290699 
	C90.302063,40.924202 92.147095,39.536564 93.992126,38.148930 
	C93.992126,38.148930 94.446465,38.045609 94.973465,38.007507 
	C95.698555,37.967834 95.896645,37.966263 96.094742,37.964695 
	C96.520966,37.997383 96.947189,38.030071 97.775665,38.429260 
	C99.140923,39.860100 99.955315,41.130207 101.093399,41.952133 
	C105.367287,45.038731 109.746773,47.979095 114.086693,50.974258 
	C115.400749,53.713951 116.714806,56.453648 117.832428,59.887619 
	C117.424004,62.387928 117.212006,64.193962 117.000000,66.000000 
	C102.979103,66.000000 88.958214,66.000000 74.468658,66.000000 
z"/>
<path fill="#32323A" opacity="1.000000" stroke="none" 
	d="
M117.500000,66.000000 
	C117.212006,64.193962 117.424004,62.387928 117.858665,60.265053 
	C118.829071,61.274963 119.576805,62.601711 120.662270,63.964230 
	C121.612228,67.085014 119.268898,65.736679 117.500000,66.000000 
z"/>
<path fill="#32323A" opacity="1.000000" stroke="none" 
	d="
M114.044693,50.594582 
	C109.746773,47.979095 105.367287,45.038731 101.093399,41.952133 
	C99.955315,41.130207 99.140923,39.860100 98.093292,38.472824 
	C103.913315,41.411568 111.541641,42.388233 114.044693,50.594582 
z"/>
<path fill="#32323A" opacity="1.000000" stroke="none" 
	d="
M93.654587,38.154030 
	C92.147095,39.536564 90.302063,40.924202 88.202133,42.114079 
	C89.737167,40.663921 91.527107,39.411526 93.654587,38.154030 
z"/>
<path fill="#32323A" opacity="1.000000" stroke="none" 
	d="
M95.967712,37.824585 
	C95.896645,37.966263 95.698555,37.967834 95.202904,37.967125 
	C95.217125,37.871387 95.528908,37.777931 95.967712,37.824585 
z"/>
</svg>